# xmcd
#
# Track frame offsets:
#	150
#	13215
#	29083
#	44374
#	61283
#	76761
#	89422
#	109062
#	127424
#	140913
#	157791
#	170542
#	186723
#	202092
#	219245
#	233211
#	250259
#	263446
#	264740
#	265943
#	267464
#
# Disc length: 3582 seconds
#
# Revision: 2
# Processed by: cddbd v1.5.2PL0 Copyright (c) Steve Scherf et al.
# Submitted via: audiograbber 1.83.01
#
DISCID=420dfc15
DTITLE=Various Artist - CDX 499
DYEAR=2010
DGENRE=Country
TTITLE0=Alan Jackson  - Hard Hat and a Hammer 
TTITLE1=LoCash Cowboys - Here Comes Summer 
TTITLE2=Trace Adkins - This Ain't No Love Song 
TTITLE3=Diamond Rio - This Is My Life 
TTITLE4=Montgomery Gentry - While You're Still Young 
TTITLE5=Mary Chapin Carpenter - I Put My Ring Back On
TTITLE6=Darren Kozelsky - Somebody Find Me a Preacher 
TTITLE7=Dean Hogan - Suck It Up 
TTITLE8=Melanie Denard - All I Ever Did Was Love You 
TTITLE9=The Roys - Beautiful
TTITLE10=Charlie Allen - Grandpa's Recipe
TTITLE11=Jake McVey - Red Lined and Wasted
TTITLE12=Casey Johnson - Simple Girl
TTITLE13=David Bradley - Soak It Up 
TTITLE14=Chelsea Field - Things I Should've Said
TTITLE15=Mark Wayne Glasmire - You Opened My Eyes
TTITLE16=Nancy Hays - True Love 
TTITLE17=Phil Vassar - CMA LINERS
TTITLE18=Darius Rucker - CMA LINERS
TTITLE19=Bellamy Brothers - CMA LINERS
TTITLE20=Little Big Town - CMA LINERS
EXTD=
EXTT0=
EXTT1=
EXTT2=
EXTT3=
EXTT4=
EXTT5=
EXTT6=
EXTT7=
EXTT8=
EXTT9=
EXTT10=
EXTT11=
EXTT12=
EXTT13=
EXTT14=
EXTT15=
EXTT16=
EXTT17=
EXTT18=
EXTT19=
EXTT20=
PLAYORDER=
